<?xml version="1.0" encoding="utf-8"?>
<!-- Generator: Adobe Illustrator 24.0.1, SVG Export Plug-In . SVG Version: 6.00 Build 0)  -->
<svg version="1.1" id="Layer_1" xmlns="http://www.w3.org/2000/svg" xmlns:xlink="http://www.w3.org/1999/xlink" x="0px" y="0px"
	 viewBox="0 0 98.8 33" style="enable-background:new 0 0 98.8 33;" xml:space="preserve">
<style type="text/css">
	.st0{fill:#FFFFFF;}
	.st1{fill:#2F80ED;}
</style>
<path class="st0" d="M2.9,26c-0.2,0-0.3-0.1-0.5-0.2c-0.1-0.1-0.2-0.3-0.2-0.5V7.1c0-0.2,0.1-0.4,0.2-0.5c0.1-0.1,0.3-0.2,0.5-0.2
	H15c0.2,0,0.4,0.1,0.5,0.2c0.1,0.1,0.2,0.3,0.2,0.5v2c0,0.2-0.1,0.4-0.2,0.5c-0.1,0.1-0.3,0.2-0.5,0.2H6v5.3h8.4
	c0.2,0,0.4,0.1,0.5,0.2s0.2,0.3,0.2,0.5v2c0,0.2-0.1,0.3-0.2,0.5c-0.1,0.1-0.3,0.2-0.5,0.2H6v6.9c0,0.2-0.1,0.3-0.2,0.5
	C5.7,25.9,5.5,26,5.3,26H2.9z M19.7,26c-0.2,0-0.3-0.1-0.5-0.2c-0.1-0.1-0.2-0.3-0.2-0.5V7.1c0-0.2,0.1-0.3,0.2-0.5
	c0.1-0.1,0.3-0.2,0.5-0.2h2.6c0.2,0,0.3,0.1,0.5,0.2c0.1,0.1,0.2,0.3,0.2,0.5v15.6h8.9c0.2,0,0.4,0.1,0.5,0.2
	c0.1,0.1,0.2,0.3,0.2,0.5v2c0,0.2-0.1,0.3-0.2,0.5C32.2,25.9,32,26,31.8,26H19.7z M35.9,26c-0.2,0-0.3-0.1-0.5-0.2
	c-0.1-0.1-0.2-0.3-0.2-0.5V7.1c0-0.2,0.1-0.3,0.2-0.5c0.1-0.1,0.3-0.2,0.5-0.2h2.6c0.2,0,0.4,0.1,0.5,0.2c0.1,0.1,0.2,0.3,0.2,0.5
	v18.3c0,0.2-0.1,0.3-0.2,0.5c-0.1,0.1-0.3,0.2-0.5,0.2H35.9z M42.5,26c-0.2,0-0.3-0.1-0.4-0.2c-0.1-0.1-0.2-0.3-0.2-0.4
	c0-0.1,0-0.1,0-0.2c0-0.1,0-0.1,0.1-0.2l6.3-9.1l-5.9-8.7c-0.1-0.1-0.1-0.2-0.1-0.3c0-0.2,0.1-0.3,0.2-0.4s0.3-0.2,0.4-0.2h2.9
	c0.2,0,0.4,0.1,0.5,0.2c0.1,0.1,0.2,0.2,0.3,0.4l4.1,6l4.1-6c0.1-0.1,0.2-0.3,0.3-0.4c0.1-0.1,0.3-0.2,0.6-0.2h2.7
	c0.2,0,0.3,0.1,0.4,0.2s0.2,0.3,0.2,0.4c0,0.1,0,0.2-0.1,0.3L53.1,16l6.3,9.1c0,0.1,0.1,0.1,0.1,0.2c0,0.1,0,0.1,0,0.2
	c0,0.2-0.1,0.3-0.2,0.4C59.2,25.9,59,26,58.9,26h-3c-0.2,0-0.4-0.1-0.5-0.2c-0.1-0.1-0.2-0.2-0.3-0.3l-4.5-6.3l-4.4,6.3
	c-0.1,0.1-0.2,0.2-0.3,0.3c-0.1,0.1-0.3,0.2-0.6,0.2H42.5z"/>
<g>
	<path class="st1" d="M74.6,24.5c0,0.2-0.1,0.4-0.2,0.5c-0.1,0.1-0.3,0.3-0.5,0.4c-0.3,0.1-0.6,0.3-1.1,0.4
		c-0.5,0.1-0.9,0.1-1.4,0.1c-0.7,0-1.4-0.1-2-0.3s-1.1-0.5-1.6-0.9c-0.4-0.4-0.8-0.9-1-1.5c-0.2-0.6-0.4-1.3-0.4-2.2
		c0-0.8,0.1-1.5,0.4-2.1c0.3-0.6,0.6-1.1,1-1.5s0.9-0.7,1.5-0.9c0.6-0.2,1.2-0.3,1.9-0.3c0.4,0,0.8,0,1.2,0.1
		c0.4,0.1,0.7,0.2,0.9,0.3c0.3,0.1,0.5,0.3,0.6,0.4c0.1,0.2,0.2,0.3,0.2,0.5c0,0.2,0,0.3-0.1,0.4c-0.1,0.1-0.2,0.2-0.3,0.3
		c-0.3-0.2-0.6-0.3-1-0.5c-0.4-0.2-0.8-0.2-1.4-0.2c-0.5,0-0.9,0.1-1.3,0.2c-0.4,0.2-0.7,0.4-1,0.7c-0.3,0.3-0.5,0.7-0.7,1.1
		c-0.2,0.4-0.2,0.9-0.2,1.5c0,0.6,0.1,1.1,0.3,1.6c0.2,0.4,0.4,0.8,0.7,1.1s0.6,0.5,1,0.6c0.4,0.1,0.8,0.2,1.3,0.2
		c0.3,0,0.6,0,0.9-0.1s0.5-0.1,0.7-0.2v-2.4h-2.1c-0.1-0.1-0.1-0.1-0.1-0.3c0-0.1-0.1-0.2-0.1-0.4c0-0.2,0.1-0.4,0.2-0.5
		c0.1-0.1,0.3-0.2,0.4-0.2h2.6c0.2,0,0.4,0.1,0.5,0.2c0.1,0.1,0.2,0.3,0.2,0.5V24.5z"/>
	<path class="st1" d="M84,23.8c-0.2,0.4-0.4,0.8-0.7,1.1s-0.7,0.5-1.2,0.7c-0.5,0.2-1,0.2-1.6,0.2c-0.6,0-1.1-0.1-1.6-0.2
		c-0.5-0.2-0.9-0.4-1.2-0.7c-0.3-0.3-0.6-0.7-0.7-1.1c-0.2-0.4-0.3-0.9-0.3-1.4v-6c0.1,0,0.2,0,0.3-0.1c0.1,0,0.3,0,0.4,0
		c0.3,0,0.5,0.1,0.7,0.2c0.1,0.1,0.2,0.3,0.2,0.6v5.3c0,0.7,0.2,1.3,0.6,1.6c0.4,0.4,0.9,0.6,1.5,0.6c0.3,0,0.6,0,0.8-0.1
		c0.3-0.1,0.5-0.2,0.7-0.4s0.3-0.4,0.4-0.7c0.1-0.3,0.2-0.6,0.2-1v-5.9c0.1,0,0.2,0,0.3-0.1c0.1,0,0.3,0,0.4,0
		c0.3,0,0.5,0.1,0.7,0.2c0.1,0.1,0.2,0.3,0.2,0.6v5.3C84.3,22.9,84.2,23.4,84,23.8z"/>
	<path class="st1" d="M93,16.4c0.1,0,0.3,0,0.4,0c0.3,0,0.5,0.1,0.7,0.2c0.1,0.1,0.2,0.3,0.2,0.6v8.6c-0.1,0-0.2,0.1-0.3,0.1
		c-0.1,0-0.3,0-0.4,0c-0.3,0-0.5-0.1-0.7-0.2c-0.1-0.1-0.2-0.3-0.2-0.6v-3.3h-4.2v4c-0.1,0-0.2,0.1-0.3,0.1c-0.1,0-0.3,0-0.4,0
		c-0.3,0-0.5-0.1-0.7-0.2c-0.1-0.1-0.2-0.3-0.2-0.6v-8.6c0.1,0,0.2,0,0.3-0.1s0.3,0,0.4,0c0.3,0,0.5,0.1,0.7,0.2
		c0.1,0.1,0.2,0.3,0.2,0.6v3.3h4.2v-3.9C92.7,16.4,92.8,16.4,93,16.4z"/>
</g>
</svg>
